<?xml version="1.0" encoding="UTF-8"?>
<svg xmlns="http://www.w3.org/2000/svg" width="200" height="200" viewBox="0 0 200 200">
  <!-- Background -->
  <rect width="200" height="200" fill="#ffffff"/>
  
  <!-- QR Code Pattern for Yoosaf N -->
  <!-- Top left corner pattern -->
  <rect x="20" y="20" width="60" height="60" fill="#000000"/>
  <rect x="30" y="30" width="40" height="40" fill="#ffffff"/>
  <rect x="40" y="40" width="20" height="20" fill="#000000"/>
  
  <!-- Top right corner pattern -->
  <rect x="120" y="20" width="60" height="60" fill="#000000"/>
  <rect x="130" y="30" width="40" height="40" fill="#ffffff"/>
  <rect x="140" y="40" width="20" height="20" fill="#000000"/>
  
  <!-- Bottom left corner pattern -->
  <rect x="20" y="120" width="60" height="60" fill="#000000"/>
  <rect x="30" y="130" width="40" height="40" fill="#ffffff"/>
  <rect x="40" y="140" width="20" height="20" fill="#000000"/>
  
  <!-- Center pattern -->
  <rect x="85" y="85" width="30" height="30" fill="#000000"/>
  <rect x="92" y="92" width="16" height="16" fill="#ffffff"/>
  <rect x="97" y="97" width="6" height="6" fill="#000000"/>
  
  <!-- Data patterns - different arrangement for Yoosaf -->
  <rect x="25" y="85" width="10" height="10" fill="#000000"/>
  <rect x="40" y="85" width="10" height="10" fill="#000000"/>
  <rect x="55" y="85" width="10" height="10" fill="#000000"/>
  <rect x="70" y="85" width="10" height="10" fill="#000000"/>
  <rect x="85" y="25" width="10" height="10" fill="#000000"/>
  <rect x="85" y="40" width="10" height="10" fill="#000000"/>
  <rect x="85" y="55" width="10" height="10" fill="#000000"/>
  <rect x="85" y="70" width="10" height="10" fill="#000000"/>
  <rect x="110" y="85" width="10" height="10" fill="#000000"/>
  <rect x="125" y="85" width="10" height="10" fill="#000000"/>
  <rect x="140" y="85" width="10" height="10" fill="#000000"/>
  <rect x="155" y="85" width="10" height="10" fill="#000000"/>
  <rect x="85" y="110" width="10" height="10" fill="#000000"/>
  <rect x="85" y="125" width="10" height="10" fill="#000000"/>
  <rect x="85" y="140" width="10" height="10" fill="#000000"/>
  <rect x="85" y="155" width="10" height="10" fill="#000000"/>
  
  <!-- Additional unique patterns -->
  <rect x="110" y="110" width="10" height="10" fill="#000000"/>
  <rect x="125" y="125" width="10" height="10" fill="#000000"/>
  <rect x="140" y="140" width="10" height="10" fill="#000000"/>
  <rect x="155" y="155" width="10" height="10" fill="#000000"/>
  
  <!-- Text label -->
  <text x="100" y="190" text-anchor="middle" font-family="Arial, sans-serif" font-size="12" fill="#333333">Yoosaf N</text>
</svg>
