<?xml version="1.0" encoding="UTF-8"?>
<svg id="Layer_2" data-name="Layer 2" xmlns="http://www.w3.org/2000/svg" viewBox="0 0 134.94 135">
  <defs>
    <style>
      .cls-1 {
        fill: #fff;
      }
    </style>
  </defs>
  <g id="Layer_1-2" data-name="Layer 1">
    <g>
      <path class="cls-1" d="M0,135l9.48-36.07C-5.67,71.41.15,38.28,23.11,17.35,46.5-3.97,81.61-5.72,106.98,12.53c32.03,23.03,37.45,68.23,11.53,97.95-20.55,23.57-54.6,29.94-82.26,14.99L0,135ZM35.86,112.42c1.46-.39,2.56-.54,3.75.22,19.31,12.27,44.2,10.67,62.04-3.4,22-17.35,27.25-48.63,11.76-72.11-10.56-16.02-28.68-25.35-47.92-24.47-18.59.86-35.75,11.32-44.96,27.92-9.8,17.67-8.92,39.41,2.55,56.33l-5.37,20.36,18.14-4.85Z"/>
      <path class="cls-1" d="M80.92,75.87c3.18-4.79,9.18-1.43,12.47.5,3.47,2.03,8.29,4.07,6.99,9.13-2.01,7.83-11.33,11.98-17.95,10.77-12.15-2.23-22.71-8.36-31.34-17.06-5.38-5.42-9.75-11.32-13.05-18.22-2.38-4.98-3.12-10.45-1.33-15.69,1.17-3.42,3.47-6.49,6.58-8.12,3.36-1.75,6.8-.83,9,2.12,1.75,2.92,3.2,6,4.39,9.25,3.1,8.47-7.28,10.82-3.55,14.57,5.02,8.48,12.59,14.87,21.84,18.43,1.15.44,2.24-.06,2.86-.99l3.11-4.68Z"/>
    </g>
  </g>
</svg>