<?xml version="1.0" encoding="UTF-8"?>
<svg id="Layer_2" data-name="Layer 2" xmlns="http://www.w3.org/2000/svg" viewBox="0 0 134.94 135">
  <defs>
    <style>
      .cls-1 {
        fill: #fff;
      }

      .cls-2 {
        fill: #38bc6a;
      }
    </style>
  </defs>
  <g id="Layer_1-2" data-name="Layer 1">
    <g>
      <path class="cls-1" d="M106.98,12.53C81.61-5.71,46.49-3.97,23.1,17.36.15,38.28-5.67,71.41,9.48,98.94L0,135l36.25-9.53c27.66,14.96,61.71,8.58,82.26-14.98,25.92-29.73,20.49-74.92-11.53-97.96ZM101.64,109.24c-17.83,14.07-42.72,15.67-62.03,3.4-1.19-.76-2.3-.61-3.75-.22l-18.15,4.85,5.37-20.36c-11.48-16.92-12.36-38.66-2.55-56.33,9.21-16.6,26.37-27.06,44.96-27.92,19.24-.89,37.36,8.45,47.92,24.46,15.48,23.49,10.23,54.77-11.77,72.12Z"/>
      <path class="cls-2" d="M113.41,37.12c-10.56-16.01-28.68-25.35-47.92-24.46-18.59.86-35.75,11.32-44.96,27.92-9.81,17.67-8.93,39.41,2.55,56.33l-5.37,20.36,18.15-4.85c1.45-.39,2.56-.54,3.75.22,19.31,12.27,44.2,10.67,62.03-3.4,22-17.35,27.25-48.63,11.77-72.12ZM100.37,85.5c-2.01,7.83-11.33,11.98-17.95,10.77-12.15-2.24-22.7-8.36-31.34-17.07-5.37-5.42-9.75-11.31-13.05-18.21-2.38-4.98-3.12-10.45-1.33-15.7,1.16-3.42,3.46-6.49,6.58-8.12,3.36-1.75,6.8-.83,9,2.12,1.74,2.91,3.19,6,4.38,9.25,3.1,8.48-7.27,10.82-3.55,14.57,5.02,8.48,12.59,14.87,21.84,18.43,1.15.44,2.24-.06,2.86-.99l3.11-4.68c3.18-4.79,9.18-1.43,12.46.5,3.47,2.03,8.29,4.07,6.99,9.13Z"/>
      <path class="cls-1" d="M100.37,85.5c-2.01,7.83-11.33,11.98-17.95,10.77-12.15-2.24-22.7-8.36-31.34-17.07-5.37-5.42-9.75-11.31-13.05-18.21-2.38-4.98-3.12-10.45-1.33-15.7,1.16-3.42,3.46-6.49,6.58-8.12,3.36-1.75,6.8-.83,9,2.12,1.74,2.91,3.19,6,4.38,9.25,3.1,8.48-7.27,10.82-3.55,14.57,5.02,8.48,12.59,14.87,21.84,18.43,1.15.44,2.24-.06,2.86-.99l3.11-4.68c3.18-4.79,9.18-1.43,12.46.5,3.47,2.03,8.29,4.07,6.99,9.13Z"/>
    </g>
  </g>
</svg>